# xmcd
#
# Track frame offsets: 
#        150
#        20078
#        41808
#        80445
#        122828
#        145282
#        188870
#        224971
#        234941
#        271033
#
# Disc length: 4032 seconds
#
# Revision: 0
# Processed by: cddbd v1.5.2PL0 Copyright (c) Steve Scherf et al.
# Submitted via: ExactAudioCopy v0.95a5
#
DISCID=940fbe0a
DTITLE=Steve Fister Band - Live Bullets
DYEAR=2007
DGENRE=Bluesrock
TTITLE0=True Grit
TTITLE1=She Ain't Lonesome
TTITLE2=Age Of Great Dreams
TTITLE3=One Way Ticket
TTITLE4=Foolin Me
TTITLE5=JB Meets JB
TTITLE6=Zig Zag Talk
TTITLE7=Tommy
TTITLE8=Baby Please Don't Go and 3rd Stone From The Sun and Radar Love
TTITLE9=Pay Bo Diddley
EXTD=
EXTT0=
EXTT1=
EXTT2=
EXTT3=
EXTT4=
EXTT5=
EXTT6=
EXTT7=
EXTT8=
EXTT9=
PLAYORDER=
